<svg id="Capa_1" enable-background="new 0 0 512.011 512.011" height="512" viewBox="0 0 512.011 512.011" width="512" xmlns="http://www.w3.org/2000/svg"><path d="m498.303 432.074-75.001-75c-14.772-14.773-36.611-17.426-53.869-8.87l-25.546-25.546c29.361-34.21 47.129-78.646 47.129-127.158 0-107.799-87.701-195.5-195.5-195.5s-195.5 87.701-195.5 195.5 87.701 195.5 195.5 195.5c48.512 0 92.948-17.768 127.158-47.129l25.562 25.562c-8.634 17.5-5.692 39.308 8.854 53.854l75.001 75c18.297 18.298 47.912 18.3 66.213 0 18.254-18.255 18.254-47.958-.001-66.213zm-302.787-71.074c-91.257 0-165.5-74.243-165.5-165.5s74.243-165.5 165.5-165.5 165.5 74.243 165.5 165.5-74.243 165.5-165.5 165.5zm281.574 116.074c-6.573 6.573-17.212 6.574-23.786 0l-75.001-75c-6.558-6.558-6.558-17.229.001-23.787 6.573-6.573 17.212-6.574 23.786 0l75.001 75c6.557 6.558 6.557 17.229-.001 23.787z"/><path d="m286.016 121h-30c0-33.084-26.916-60-60-60s-60 26.916-60 60h-30c-8.284 0-15 6.716-15 15v110c0 30.327 24.673 55 55 55h100c30.327 0 55-24.673 55-55v-110c0-8.284-6.716-15-15-15zm-90-30c16.542 0 30 13.458 30 30h-60c0-16.542 13.458-30 30-30zm75 155c0 13.785-11.215 25-25 25h-100c-13.785 0-25-11.215-25-25v-95h15c0 8.284 6.716 15 15 15s15-6.716 15-15h60c0 8.284 6.716 15 15 15s15-6.716 15-15h15z"/></svg>