<svg id="Capa_1" enable-background="new 0 0 512 512" height="512" viewBox="0 0 512 512" width="512" xmlns="http://www.w3.org/2000/svg"><g><g><path d="m318.092 233.229 4.558-33.38c.204-1.281.438-2.541.688-3.788l-68.01 46.679c8.815 4.546 16.275 11.349 21.603 19.655z" fill="#00a7d3"/><g><path d="m363.194 478.475v-50.906h-38.009v76.931h26.249v-10.644c0-7.359 4.985-13.537 11.76-15.381z" fill="#ffc495"/><g><path d="m366.335 427.569v50.376c-8.319.55-14.901 7.453-14.901 15.912v10.643h50.219c1.657 0 3-1.343 3-3v-19.352-4.257-50.322z" fill="#ffc495"/></g><g><path d="m366.335 427.569v50.376c-8.319.55-14.901 7.453-14.901 15.912v10.643h16.22v-2.144c0-7.203 4.773-13.278 11.328-15.263 2.116-.641 3.573-2.573 3.573-4.784v-54.741h-16.22z" fill="#ffb392"/></g><path d="m325.185 335.543h35.141v92.025h-35.141z" fill="#fd4755"/><path d="m325.185 411h35.141v16.569h-35.141z" fill="#fb2b3a"/></g><path d="m360.326 335.543h50.337v92.025h-50.337z" fill="#fd4755"/><path d="m377.317 335.543h-16.991v92.026h50.336v-16.569h-33.345z" fill="#fb2b3a"/><path d="m389.976 153.901h-.152v6.326c0 8.331-6.754 15.085-15.085 15.085s-15.085-6.754-15.085-15.085v-1.417h-12.691c-13.599 7.386-21.361 22.491-24.314 41.039l-4.558 33.38 53.727-38.07c7.395-5.075 17.504-3.195 22.579 4.199 5.075 7.395 3.195 17.504-4.199 22.579l-73.028 51.746v35.635h6.014c1.657 0 3 1.343 3 3v23.224h94.173v-151.259c.001-16.78-13.602-30.382-30.381-30.382z" fill="#00a7d3"/><g fill="#0096d3"><path d="m346.098 213.385 1.848-13.535c2.062-12.952 6.468-24.227 13.57-32.365-1.185-2.154-1.861-4.626-1.861-7.257v-1.417h-12.691c-13.599 7.386-21.361 22.491-24.314 41.039l-4.558 33.38z"/><path d="m330.273 329.279 9.808-71.829-22.91 16.234v35.635h6.014c1.657 0 3 1.343 3 3v23.224h9.434c-3.329 0-5.869-2.976-5.346-6.264z"/></g><path d="m394.398 199.358c-5.075-7.395-15.185-9.275-22.579-4.199l-94.899 67.244c1.542 2.406 2.905 4.934 4.072 7.572h33.179c1.657 0 3 1.343 3 3v.709l73.028-51.746c7.394-5.076 9.274-15.185 4.199-22.58z" fill="#26a6fe"/><g><path d="m384.213 134.17c-1.756 0-3.384-.921-4.288-2.427l-10.265-17.109c3.524-2.979 5.767-7.426 5.767-12.402 0-5.551-2.789-10.446-7.037-13.375v-.159h-76.752v28.204c0 23.145 18.762 41.907 41.907 41.907h26.109v1.417c0 8.331 6.754 15.085 15.085 15.085s15.085-6.754 15.085-15.085v-26.056z" fill="#ffc495"/><path d="m312.654 116.902v-28.203h-21.016v28.204c0 23.145 18.762 41.907 41.907 41.907h21.016c-23.144 0-41.907-18.763-41.907-41.908z" fill="#ffb392"/><path d="m368.391 88.857c4.249 2.929 7.037 7.824 7.037 13.375 0 4.976-2.243 9.423-5.767 12.402l10.265 17.109c.904 1.506 2.531 2.427 4.288 2.427h10.574c2.761 0 5-2.239 5-5v-40.471h-31.397z" fill="#5a5a5a"/><g><g><path d="m413.967 88.699h-145.616c-2.591 0-3.964-3.064-2.239-4.997l27.502-30.826h95.148l27.444 30.828c1.724 1.934.351 4.995-2.239 4.995z" fill="#fac600"/></g><g><path d="m317.016 69.177h86.259l-14.512-16.301h-95.148l-27.502 30.826c-1.725 1.933-.353 4.997 2.239 4.997h24.528l12.944-14.508c2.845-3.19 6.917-5.014 11.192-5.014z" fill="#e8b800"/></g><g><path d="m366.239 7.5h-50.1c-12.44 0-22.524 10.084-22.524 22.524v22.852h95.148v-22.852c0-12.44-10.084-22.524-22.524-22.524z" fill="#fed402"/></g><g><path d="m341.178 7.5h-25.039c-12.44 0-22.524 10.084-22.524 22.524v22.852h25.039v-22.852c0-12.44 10.085-22.524 22.524-22.524z" fill="#fac600"/></g></g></g></g><g><g><path d="m222.74 236.957c2.267-.279 4.57-.439 6.912-.439s4.646.16 6.912.439l13.754-23.823c1.155-2-.289-4.5-2.598-4.5h-36.137c-2.309 0-3.753 2.5-2.598 4.5z" fill="#838383"/><path d="m222.74 236.957c2.267-.279 4.57-.439 6.912-.439s4.646.16 6.912.439l.552-.956-13.202-22.867c-1.155-2 .289-4.5 2.598-4.5h-14.929c-2.309 0-3.753 2.5-2.598 4.5z" fill="#5a5a5a"/><path d="m241.853 269.975h39.138c-8.71-19.702-28.412-33.457-51.339-33.457-30.993 0-56.118 25.125-56.118 56.118v16.684h65.319v-36.344c0-1.658 1.343-3.001 3-3.001z" fill="#5a5a5a"/><path d="m198.654 309.319v-16.684c0-26.673 18.615-48.984 43.558-54.689-4.04-.924-8.24-1.429-12.56-1.429-30.993 0-56.118 25.125-56.118 56.118v16.684z" fill="#444"/><path d="m317.171 309.319v-36.344c0-1.657-1.343-3-3-3h-72.317c-1.657 0-3 1.343-3 3v36.344z" fill="#fe9901"/><path d="m264.337 309.319v-36.344c0-1.657 1.343-3 3-3h-25.483c-1.657 0-3 1.343-3 3v36.344z" fill="#fb8801"/></g><g><path d="m323.185 309.319h-157.324c-1.657 0-3 1.343-3 3v40.141h7.647c2.309 0 3.753 2.5 2.598 4.5l-10.245 17.745v12.534h1.1c14.857 0 27.407 11.025 29.321 25.759l11.883 91.502h121.02v-192.181c0-1.657-1.343-3-3-3z" fill="#d8ecfe"/><g fill="#c4e2ff"><path d="m165.861 309.319c-1.657 0-3 1.343-3 3v40.141h7.647c2.309 0 3.753 2.5 2.598 4.5l-10.245 17.745v12.534h1.1c8.002 0 15.331 3.202 20.693 8.455v-83.375c0-1.657 1.343-3 3-3z"/><path d="m200.25 466.659 4.915 37.841h121.02v-37.841z"/></g></g><g><path d="m140.491 387.239h15.134l17.482-30.279c1.155-2-.289-4.5-2.598-4.5h-44.901c-2.309 0-3.753 2.5-2.598 4.5z" fill="#838383"/><path d="m140.491 387.239h15.134l.504-.872-16.979-29.407c-1.155-2 .289-4.5 2.598-4.5h-16.141c-2.309 0-3.753 2.5-2.598 4.5z" fill="#5a5a5a"/><g><path d="m205.165 504.5h-108.523c-3.017 0-5.347-2.652-4.958-5.644l11.15-85.858c1.913-14.733 14.463-25.759 29.32-25.759h31.807c14.857 0 27.407 11.025 29.32 25.759z" fill="#5a5a5a"/></g><g><path d="m116.697 498.856 11.15-85.858c1.913-14.733 14.463-25.759 29.32-25.759h-25.013c-14.857 0-27.407 11.025-29.321 25.759l-11.15 85.858c-.389 2.992 1.941 5.644 4.958 5.644h25.013c-3.016 0-5.346-2.652-4.957-5.644z" fill="#444"/></g></g></g><g><path d="m323.408 99.569c-4.143 0-7.5 3.358-7.5 7.5v6.53c0 4.142 3.357 7.5 7.5 7.5s7.5-3.358 7.5-7.5v-6.53c0-4.142-3.357-7.5-7.5-7.5z"/><path d="m228.92 336.318c-4.143 0-7.5 3.358-7.5 7.5v97.591c0 4.142 3.357 7.5 7.5 7.5s7.5-3.358 7.5-7.5v-97.591c0-4.142-3.358-7.5-7.5-7.5z"/><path d="m260.126 336.318c-4.143 0-7.5 3.358-7.5 7.5v97.591c0 4.142 3.357 7.5 7.5 7.5s7.5-3.358 7.5-7.5v-97.591c0-4.142-3.358-7.5-7.5-7.5z"/><path d="m291.332 336.318c-4.143 0-7.5 3.358-7.5 7.5v97.591c0 4.142 3.357 7.5 7.5 7.5s7.5-3.358 7.5-7.5v-97.591c0-4.142-3.358-7.5-7.5-7.5z"/><path d="m420.358 262.5c4.143 0 7.5-3.358 7.5-7.5v-70.717c0-18.375-13.152-33.73-30.535-37.161v-5.71c5.681-1.175 9.965-6.217 9.965-12.241v-32.972h6.679c4.13 0 7.89-2.435 9.58-6.202s1.009-8.195-1.737-11.279l-25.546-28.696v-19.998c-.001-16.555-13.469-30.024-30.025-30.024h-50.101c-16.555 0-30.023 13.469-30.023 30.024v19.992l-25.6 28.693c-2.751 3.083-3.437 7.512-1.747 11.283s5.451 6.207 9.583 6.207h15.787v20.704c0 25.329 19.162 46.256 43.749 49.073-5.063 6.878-8.872 15.461-11.251 25.588l-20.816 14.287c-3.415 2.344-4.283 7.013-1.939 10.428 2.345 3.415 7.013 4.285 10.428 1.939l9.119-6.259-2.325 17.03-32.533 23.052c-2.902-3.491-6.17-6.667-9.742-9.471l6.621-4.545c3.415-2.344 4.283-7.013 1.939-10.428s-7.011-4.284-10.428-1.939l-12.347 8.474c-2.08-.892-4.216-1.679-6.403-2.347l8.605-14.903c1.869-3.238 1.868-7.262-.002-10.5-1.869-3.238-5.354-5.25-9.093-5.25h-36.137c-3.738 0-7.223 2.011-9.092 5.249-1.87 3.238-1.871 7.262-.001 10.501l8.604 14.902c-26.053 7.962-45.06 32.224-45.06 60.849v9.184h-.174c-5.79 0-10.5 4.71-10.5 10.5v32.641h-29.754c-3.739 0-7.224 2.011-9.093 5.25-1.87 3.238-1.871 7.261-.001 10.5l11.15 19.312c-16.566 2.028-30.072 15.106-32.267 32.01l-11.15 85.857c-.463 3.565.632 7.159 3.005 9.86s5.796 4.25 9.391 4.25h305.011c5.79 0 10.5-4.71 10.5-10.5v-66.58c3.428-.691 6.01-3.719 6.01-7.351v-84.525h2.196c4.143 0 7.5-3.358 7.5-7.5v-45.541c0-4.142-3.357-7.5-7.5-7.5s-7.5 3.358-7.5 7.5v38.043h-79.173v-15.724c0-5.284-3.927-9.657-9.015-10.382v-24.375l69.822-49.475c10.751-7.418 13.484-22.196 6.089-32.973-7.408-10.792-22.214-13.545-33.007-6.138-.031.021-.062.042-.092.064l-39.621 28.074 2.208-16.167c2.045-12.78 7.1-27.257 19.023-34.638h3.893c2.663 9.508 11.406 16.501 21.753 16.501 11.66 0 21.282-8.882 22.462-20.235 9.086 3.032 15.657 11.614 15.657 21.707v70.718c.001 4.142 3.359 7.5 7.501 7.5zm-110.687 14.975v24.344h-63.317v-24.344zm-69.744-61.341-7.479 12.955c-.927-.04-1.858-.071-2.795-.071s-1.867.031-2.795.071l-7.479-12.955zm-58.892 76.501c0-26.808 21.81-48.618 48.617-48.618 15.42 0 29.176 7.224 38.087 18.458h-25.886c-5.79 0-10.5 4.71-10.5 10.5v28.844h-50.318zm-18.321 67.325-11.419 19.779h-6.474l-11.419-19.779zm-63.227 137.04 10.784-83.036c1.423-10.96 10.831-19.225 21.883-19.225h31.807c11.052 0 20.46 8.265 21.883 19.225l10.784 83.036zm219.197 0h-106.93l-2.967-22.841h109.897zm49.141-153.957h35.337v77.025h-35.337zm-8.892 150.813c0-4.433 3.469-8.135 7.896-8.428 3.941-.26 7.005-3.533 7.005-7.483v-42.875h23.317v61.93h-38.219v-3.144zm-.098-21.828c-8.747 3.443-14.901 11.986-14.901 21.828v3.144h-10.248v-61.931h25.149zm-32.65-95.528c4.143 0 7.5-3.358 7.5-7.5v-25.957h19.14v77.025h-19.14v-16.068c0-4.142-3.357-7.5-7.5-7.5s-7.5 3.358-7.5 7.5v55.159h-111.846l-2.002-15.416c.241-.735.377-1.518.377-2.334v-97.591c0-4.142-3.357-7.5-7.5-7.5s-7.5 3.358-7.5 7.5v46.876c-5.312-5.329-12.21-9.036-19.853-10.381v-3.598l9.239-16.003c1.871-3.238 1.871-7.262.002-10.5s-5.354-5.251-9.094-5.251h-.147v-28.141h148.324v52.18c0 4.142 3.358 7.5 7.5 7.5zm49.918-175.185c3.968-2.692 9.393-1.673 12.111 2.287 2.727 3.973 1.713 9.425-2.26 12.152-.031.021-.062.042-.092.064l-67.253 47.655c-1.35-.634-2.851-.998-4.439-.998h-24.38zm-74.988-171.291c0-8.284 6.739-15.024 15.023-15.024h50.101c8.284 0 15.024 6.74 15.024 15.024v15.352h-80.148zm81.208 130.202c0 4.182-3.402 7.585-7.584 7.585-4.183 0-7.585-3.403-7.585-7.585v-1.417c0-4.142-3.357-7.5-7.5-7.5h-26.108c-18.973 0-34.407-15.435-34.407-34.407v-20.703h66.357c1.502 1.57 2.432 3.693 2.432 6.033 0 4.819-3.921 8.74-8.739 8.74-4.143 0-7.5 3.358-7.5 7.5s3.357 7.5 7.5 7.5c2.712 0 5.316-.463 7.745-1.304l6.562 10.937c1.918 3.194 5.195 5.341 8.827 5.906zm9.965-33.556h-6.659l-6.732-11.22c2.544-3.781 4.031-8.329 4.031-13.219 0-2.086-.285-4.105-.794-6.033h10.155v30.472zm-113.892-45.471 18.578-20.823h88.425l18.537 20.823z"/></g></g></svg>