<svg id="Capa_1" enable-background="new 0 0 511 511" height="512" viewBox="0 0 511 511" width="512" xmlns="http://www.w3.org/2000/svg"><g><path d="m498 466v-252.155c6.233-7.397 10-16.937 10-27.345v-26.882l-21.023-39.245-13.223 7.083 14.22 26.544h-51.817l-19.714-69h34.566l15.661 29.234 13.222-7.083-16.892-31.534v-75.617h-142.5v15h127.5v55h-385v-55h242.5v-15h-257.5v75.617l-45 84v26.883c0 10.408 3.767 19.948 10 27.345v54.655h15v-43.286c5.341 2.424 11.263 3.786 17.5 3.786 14.504 0 27.327-7.307 35-18.429 7.673 11.122 20.496 18.429 35 18.429s27.327-7.307 35-18.429c7.673 11.122 20.496 18.429 35 18.429s27.327-7.307 35-18.429c7.673 11.122 20.496 18.429 35 18.429s27.327-7.307 35-18.429c7.673 11.122 20.496 18.429 35 18.429s27.327-7.307 35-18.429c7.673 11.122 20.496 18.429 35 18.429s27.327-7.307 35-18.429c7.673 11.122 20.496 18.429 35 18.429 6.237 0 12.159-1.362 17.5-3.786v60.786h-22v-34h-195v34h-25.5v15h25.5 195 22v60h-17v-42.5h-15v42.5h-15v-42.5h-15v42.5h-20v-16.5c0-15.164-12.336-27.5-27.5-27.5-7.875 0-14.982 3.332-20 8.655-5.018-5.323-12.125-8.655-20-8.655s-14.982 3.332-20 8.655c-5.018-5.323-12.125-8.655-20-8.655-15.164 0-27.5 12.336-27.5 27.5v16.5h-25.5v15h25.5 40 15 25 15 40 82v60h-27v-40h-55v40h-40v-40h-95v40h-25.5v15h25.5 8v15h-76v-130h-30v-60h-20v-15h17.5v-15h-50v15h17.5v15h-80v60h-25v-52.5h-15v182.5h-13v45h78.5v-15h-63.5v-15h301.5v-15h-27.5v-15h72 40 33v15h-102.5v15h164.5v15h-402.5v15h417.5v-45zm-425-279.5c0 15.164-12.336 27.5-27.5 27.5s-27.5-12.336-27.5-27.5v-17.5h55zm1.97-32.5h-51.944l36.964-69h36.337zm68.03 32.5c0 15.164-12.336 27.5-27.5 27.5s-27.5-12.336-27.5-27.5v-17.5h55zm1.294-32.5h-53.622l21.357-69h45.407zm68.706 32.5c0 15.164-12.336 27.5-27.5 27.5s-27.5-12.336-27.5-27.5v-17.5h55zm.517-32.5h-53.953l13.143-69h45.739zm19.966-69h45.865l3.286 69h-54.079zm49.517 101.5c0 15.164-12.336 27.5-27.5 27.5s-27.5-12.336-27.5-27.5v-17.5h55zm11.366-101.5h45.781l11.5 69h-53.995zm58.634 101.5c0 15.164-12.336 27.5-27.5 27.5s-27.5-12.336-27.5-27.5v-17.5h55zm2.353-101.5h45.489l19.714 69h-53.704zm67.647 101.5c0 15.164-12.336 27.5-27.5 27.5s-27.5-12.336-27.5-27.5v-17.5h55zm-112 99.5h-30v-19h30zm45 0h-30v-19h30zm45 0h-30v-19h30zm45 0h-30v-19h30zm-140 75h-25v-16.5c0-6.893 5.607-12.5 12.5-12.5s12.5 5.607 12.5 12.5zm40 0h-25v-16.5c0-6.893 5.607-12.5 12.5-12.5s12.5 5.607 12.5 12.5zm40 0h-25v-16.5c0-6.893 5.607-12.5 12.5-12.5s12.5 5.607 12.5 12.5zm-318-70h85v45h-85zm115 115h-32.5v15h32.5v15h-52.5v15h52.5v15h-155v-115h155zm123 30h-25v-25h25zm40 0h-25v-25h25zm95 0h-25v-25h25zm42 30h-34v-15h7 27zm10-279.5c0 15.164-12.336 27.5-27.5 27.5s-27.5-12.336-27.5-27.5v-17.5h55z"/><path d="m100.5 436h15v15h-15z"/><path d="m70.5 436h15v15h-15z"/><path d="m218 35h15v15h-15z"/><path d="m278 35h15v15h-15z"/><path d="m248 35h15v15h-15z"/></g></svg>